{
	"patcher" : 	{
		"fileversion" : 1,
		"appversion" : 		{
			"major" : 8,
			"minor" : 0,
			"revision" : 1,
			"architecture" : "x64",
			"modernui" : 1
		}
,
		"classnamespace" : "box",
		"rect" : [ 297.0, 79.0, 809.0, 655.0 ],
		"bglocked" : 0,
		"openinpresentation" : 0,
		"default_fontsize" : 12.0,
		"default_fontface" : 0,
		"default_fontname" : "Arial",
		"gridonopen" : 1,
		"gridsize" : [ 5.0, 5.0 ],
		"gridsnaponopen" : 1,
		"objectsnaponopen" : 1,
		"statusbarvisible" : 2,
		"toolbarvisible" : 1,
		"lefttoolbarpinned" : 0,
		"toptoolbarpinned" : 0,
		"righttoolbarpinned" : 0,
		"bottomtoolbarpinned" : 0,
		"toolbars_unpinned_last_save" : 0,
		"tallnewobj" : 0,
		"boxanimatetime" : 200,
		"enablehscroll" : 1,
		"enablevscroll" : 1,
		"devicewidth" : 0.0,
		"description" : "",
		"digest" : "",
		"tags" : "",
		"style" : "",
		"subpatcher_template" : "",
		"showrootpatcherontab" : 0,
		"showontab" : 0,
		"boxes" : [ 			{
				"box" : 				{
					"fontname" : "Arial",
					"fontsize" : 12.0,
					"id" : "obj-3",
					"maxclass" : "newobj",
					"numinlets" : 0,
					"numoutlets" : 0,
					"patcher" : 					{
						"fileversion" : 1,
						"appversion" : 						{
							"major" : 8,
							"minor" : 0,
							"revision" : 1,
							"architecture" : "x64",
							"modernui" : 1
						}
,
						"classnamespace" : "box",
						"rect" : [ 0.0, 26.0, 809.0, 629.0 ],
						"bglocked" : 0,
						"openinpresentation" : 0,
						"default_fontsize" : 13.0,
						"default_fontface" : 0,
						"default_fontname" : "Arial",
						"gridonopen" : 1,
						"gridsize" : [ 5.0, 5.0 ],
						"gridsnaponopen" : 1,
						"objectsnaponopen" : 1,
						"statusbarvisible" : 2,
						"toolbarvisible" : 1,
						"lefttoolbarpinned" : 0,
						"toptoolbarpinned" : 0,
						"righttoolbarpinned" : 0,
						"bottomtoolbarpinned" : 0,
						"toolbars_unpinned_last_save" : 0,
						"tallnewobj" : 0,
						"boxanimatetime" : 200,
						"enablehscroll" : 1,
						"enablevscroll" : 1,
						"devicewidth" : 0.0,
						"description" : "",
						"digest" : "",
						"tags" : "",
						"style" : "",
						"subpatcher_template" : "",
						"showontab" : 1,
						"boxes" : [ 							{
								"box" : 								{
									"bubble" : 1,
									"fontname" : "Arial",
									"fontsize" : 13.0,
									"id" : "obj-6",
									"linecount" : 3,
									"maxclass" : "comment",
									"numinlets" : 1,
									"numoutlets" : 0,
									"patching_rect" : [ 339.0, 182.0, 134.0, 54.0 ],
									"text" : "Try to click on the two messages to plot the features"
								}

							}
, 							{
								"box" : 								{
									"fontname" : "Arial",
									"fontsize" : 13.0,
									"id" : "obj-4",
									"linecount" : 3,
									"maxclass" : "comment",
									"numinlets" : 1,
									"numoutlets" : 0,
									"patching_rect" : [ 18.5, 119.0, 212.666626000000008, 50.0 ],
									"text" : "With 'getfeatures' you can get the features contained in the database for a specific file",
									"textcolor" : [ 0.50196099281311, 0.50196099281311, 0.50196099281311, 1.0 ]
								}

							}
, 							{
								"box" : 								{
									"bubble" : 1,
									"bubbleside" : 0,
									"fontname" : "Arial",
									"fontsize" : 13.0,
									"id" : "obj-3",
									"linecount" : 2,
									"maxclass" : "comment",
									"numinlets" : 1,
									"numoutlets" : 0,
									"patching_rect" : [ 18.5, 249.0, 288.0, 55.0 ],
									"text" : "To get the name of a file in the database, you can use a 'grep'"
								}

							}
, 							{
								"box" : 								{
									"id" : "obj-1",
									"maxclass" : "message",
									"numinlets" : 2,
									"numoutlets" : 1,
									"outlettype" : [ "" ],
									"patching_rect" : [ 78.828856999999999, 213.0, 246.0, 23.0 ],
									"text" : "getfeatures /Brass/Hn/Hn-ord-C4-pp.wav"
								}

							}
, 							{
								"box" : 								{
									"fontname" : "Arial",
									"fontsize" : 13.0,
									"id" : "obj-22",
									"maxclass" : "comment",
									"numinlets" : 1,
									"numoutlets" : 0,
									"patching_rect" : [ 10.0, 72.0, 271.0, 21.0 ],
									"text" : "Retrieve the stored features for a specific file.",
									"textcolor" : [ 0.50196099281311, 0.50196099281311, 0.50196099281311, 1.0 ]
								}

							}
, 							{
								"box" : 								{
									"id" : "obj-13",
									"maxclass" : "message",
									"numinlets" : 2,
									"numoutlets" : 1,
									"outlettype" : [ "" ],
									"patching_rect" : [ 18.5, 179.0, 239.0, 23.0 ],
									"text" : "getfeatures /Brass/Hn/Hn-ord-C2-ff.wav"
								}

							}
, 							{
								"box" : 								{
									"id" : "obj-10",
									"maxclass" : "newobj",
									"numinlets" : 1,
									"numoutlets" : 1,
									"outlettype" : [ "" ],
									"patcher" : 									{
										"fileversion" : 1,
										"appversion" : 										{
											"major" : 8,
											"minor" : 0,
											"revision" : 1,
											"architecture" : "x64",
											"modernui" : 1
										}
,
										"classnamespace" : "box",
										"rect" : [ 0.0, 0.0, 640.0, 480.0 ],
										"bglocked" : 0,
										"openinpresentation" : 0,
										"default_fontsize" : 12.0,
										"default_fontface" : 0,
										"default_fontname" : "Arial",
										"gridonopen" : 1,
										"gridsize" : [ 15.0, 15.0 ],
										"gridsnaponopen" : 1,
										"objectsnaponopen" : 1,
										"statusbarvisible" : 2,
										"toolbarvisible" : 1,
										"lefttoolbarpinned" : 0,
										"toptoolbarpinned" : 0,
										"righttoolbarpinned" : 0,
										"bottomtoolbarpinned" : 0,
										"toolbars_unpinned_last_save" : 0,
										"tallnewobj" : 0,
										"boxanimatetime" : 200,
										"enablehscroll" : 1,
										"enablevscroll" : 1,
										"devicewidth" : 0.0,
										"description" : "",
										"digest" : "",
										"tags" : "",
										"style" : "",
										"subpatcher_template" : "",
										"boxes" : [ 											{
												"box" : 												{
													"id" : "obj-28",
													"maxclass" : "newobj",
													"numinlets" : 3,
													"numoutlets" : 1,
													"outlettype" : [ "" ],
													"patching_rect" : [ 50.0, 139.666655999999989, 243.0, 23.0 ],
													"text" : "vexpr ($f1-$f3)/($f2-$f3) @scalarmode 1"
												}

											}
, 											{
												"box" : 												{
													"id" : "obj-21",
													"maxclass" : "newobj",
													"numinlets" : 2,
													"numoutlets" : 2,
													"outlettype" : [ "float", "int" ],
													"patching_rect" : [ 169.0, 100.0, 78.0, 23.0 ],
													"text" : "minimum 1."
												}

											}
, 											{
												"box" : 												{
													"id" : "obj-14",
													"maxclass" : "newobj",
													"numinlets" : 2,
													"numoutlets" : 2,
													"outlettype" : [ "float", "int" ],
													"patching_rect" : [ 84.5, 100.0, 81.0, 23.0 ],
													"text" : "maximum 1."
												}

											}
, 											{
												"box" : 												{
													"comment" : "",
													"id" : "obj-29",
													"index" : 1,
													"maxclass" : "inlet",
													"numinlets" : 0,
													"numoutlets" : 1,
													"outlettype" : [ "" ],
													"patching_rect" : [ 95.166672000000005, 40.0, 30.0, 30.0 ]
												}

											}
, 											{
												"box" : 												{
													"comment" : "",
													"id" : "obj-30",
													"index" : 1,
													"maxclass" : "outlet",
													"numinlets" : 1,
													"numoutlets" : 0,
													"patching_rect" : [ 50.0, 222.666655999999989, 30.0, 30.0 ]
												}

											}
 ],
										"lines" : [ 											{
												"patchline" : 												{
													"destination" : [ "obj-28", 1 ],
													"source" : [ "obj-14", 0 ]
												}

											}
, 											{
												"patchline" : 												{
													"destination" : [ "obj-28", 2 ],
													"source" : [ "obj-21", 0 ]
												}

											}
, 											{
												"patchline" : 												{
													"destination" : [ "obj-30", 0 ],
													"source" : [ "obj-28", 0 ]
												}

											}
, 											{
												"patchline" : 												{
													"destination" : [ "obj-14", 0 ],
													"order" : 1,
													"source" : [ "obj-29", 0 ]
												}

											}
, 											{
												"patchline" : 												{
													"destination" : [ "obj-21", 0 ],
													"order" : 0,
													"source" : [ "obj-29", 0 ]
												}

											}
, 											{
												"patchline" : 												{
													"destination" : [ "obj-28", 0 ],
													"order" : 2,
													"source" : [ "obj-29", 0 ]
												}

											}
 ]
									}
,
									"patching_rect" : [ 18.5, 373.666655999999989, 78.0, 23.0 ],
									"saved_object_attributes" : 									{
										"description" : "",
										"digest" : "",
										"globalpatchername" : "",
										"tags" : ""
									}
,
									"text" : "p normalize"
								}

							}
, 							{
								"box" : 								{
									"ghostbar" : 50,
									"id" : "obj-23",
									"maxclass" : "multislider",
									"numinlets" : 1,
									"numoutlets" : 2,
									"outlettype" : [ "", "" ],
									"parameter_enable" : 0,
									"patching_rect" : [ 18.5, 410.666626000000008, 705.0, 118.0 ],
									"setminmax" : [ 0.0, 1.0 ],
									"size" : 1024
								}

							}
, 							{
								"box" : 								{
									"bubble" : 1,
									"fontname" : "Arial",
									"fontsize" : 13.0,
									"id" : "obj-50",
									"maxclass" : "comment",
									"numinlets" : 1,
									"numoutlets" : 0,
									"patching_rect" : [ 529.5, 145.0, 104.0, 25.0 ],
									"text" : "Set database"
								}

							}
, 							{
								"box" : 								{
									"id" : "obj-47",
									"maxclass" : "button",
									"numinlets" : 1,
									"numoutlets" : 1,
									"outlettype" : [ "bang" ],
									"parameter_enable" : 0,
									"patching_rect" : [ 501.0, 145.0, 24.0, 24.0 ]
								}

							}
, 							{
								"box" : 								{
									"id" : "obj-45",
									"maxclass" : "newobj",
									"numinlets" : 1,
									"numoutlets" : 1,
									"outlettype" : [ "" ],
									"patching_rect" : [ 501.0, 203.0, 126.0, 23.0 ],
									"text" : "orchidea.db.tinySOL"
								}

							}
, 							{
								"box" : 								{
									"bgmode" : 0,
									"border" : 0,
									"clickthrough" : 0,
									"embed" : 1,
									"enablehscroll" : 0,
									"enablevscroll" : 0,
									"id" : "obj-16",
									"lockeddragscroll" : 0,
									"maxclass" : "bpatcher",
									"numinlets" : 1,
									"numoutlets" : 1,
									"offset" : [ 0.0, 0.0 ],
									"outlettype" : [ "" ],
									"patcher" : 									{
										"fileversion" : 1,
										"appversion" : 										{
											"major" : 8,
											"minor" : 0,
											"revision" : 1,
											"architecture" : "x64",
											"modernui" : 1
										}
,
										"classnamespace" : "box",
										"rect" : [ -217.0, -23.0, 333.0, 99.0 ],
										"bglocked" : 0,
										"openinpresentation" : 0,
										"default_fontsize" : 12.0,
										"default_fontface" : 0,
										"default_fontname" : "Arial",
										"gridonopen" : 1,
										"gridsize" : [ 15.0, 15.0 ],
										"gridsnaponopen" : 1,
										"objectsnaponopen" : 1,
										"statusbarvisible" : 2,
										"toolbarvisible" : 1,
										"lefttoolbarpinned" : 0,
										"toptoolbarpinned" : 0,
										"righttoolbarpinned" : 0,
										"bottomtoolbarpinned" : 0,
										"toolbars_unpinned_last_save" : 0,
										"tallnewobj" : 0,
										"boxanimatetime" : 200,
										"enablehscroll" : 1,
										"enablevscroll" : 1,
										"devicewidth" : 0.0,
										"description" : "",
										"digest" : "",
										"tags" : "",
										"style" : "",
										"subpatcher_template" : "",
										"boxes" : [ 											{
												"box" : 												{
													"comment" : "",
													"hidden" : 1,
													"id" : "obj-16",
													"index" : 1,
													"maxclass" : "inlet",
													"numinlets" : 0,
													"numoutlets" : 1,
													"outlettype" : [ "" ],
													"patching_rect" : [ 226.0, 26.5, 30.0, 30.0 ]
												}

											}
, 											{
												"box" : 												{
													"hidden" : 1,
													"id" : "obj-15",
													"linecount" : 3,
													"maxclass" : "newobj",
													"numinlets" : 1,
													"numoutlets" : 1,
													"outlettype" : [ "" ],
													"patching_rect" : [ 159.0, 50.0, 43.0, 49.0 ],
													"text" : "loadmess set"
												}

											}
, 											{
												"box" : 												{
													"fontface" : 2,
													"fontsize" : 10.0,
													"id" : "obj-14",
													"maxclass" : "comment",
													"numinlets" : 1,
													"numoutlets" : 0,
													"patching_rect" : [ 2.0, 26.5, 209.0, 18.0 ],
													"textjustification" : 1
												}

											}
, 											{
												"box" : 												{
													"hidden" : 1,
													"id" : "obj-13",
													"maxclass" : "newobj",
													"numinlets" : 1,
													"numoutlets" : 1,
													"outlettype" : [ "" ],
													"patching_rect" : [ 104.0, 270.0, 74.0, 22.0 ],
													"text" : "prepend set"
												}

											}
, 											{
												"box" : 												{
													"hidden" : 1,
													"id" : "obj-12",
													"maxclass" : "newobj",
													"numinlets" : 1,
													"numoutlets" : 5,
													"outlettype" : [ "", "", "", "", "" ],
													"patching_rect" : [ 88.0, 173.0, 83.0, 22.0 ],
													"text" : "regexp .+/(.+)"
												}

											}
, 											{
												"box" : 												{
													"hidden" : 1,
													"id" : "obj-11",
													"maxclass" : "newobj",
													"numinlets" : 2,
													"numoutlets" : 2,
													"outlettype" : [ "", "" ],
													"patching_rect" : [ 104.0, 240.0, 53.0, 22.0 ],
													"text" : "zl.group"
												}

											}
, 											{
												"box" : 												{
													"hidden" : 1,
													"id" : "obj-10",
													"maxclass" : "newobj",
													"numinlets" : 1,
													"numoutlets" : 1,
													"outlettype" : [ "" ],
													"patching_rect" : [ 2.0, 198.0, 56.0, 22.0 ],
													"text" : "deferlow"
												}

											}
, 											{
												"box" : 												{
													"hidden" : 1,
													"id" : "obj-9",
													"maxclass" : "newobj",
													"numinlets" : 2,
													"numoutlets" : 1,
													"outlettype" : [ "bang" ],
													"patching_rect" : [ 2.0, 168.0, 63.0, 22.0 ],
													"text" : "delay 100"
												}

											}
, 											{
												"box" : 												{
													"hidden" : 1,
													"id" : "obj-8",
													"maxclass" : "newobj",
													"numinlets" : 1,
													"numoutlets" : 2,
													"outlettype" : [ "bang", "" ],
													"patching_rect" : [ 2.0, 132.0, 30.0, 22.0 ],
													"text" : "t b l"
												}

											}
, 											{
												"box" : 												{
													"hidden" : 1,
													"id" : "obj-3",
													"maxclass" : "newobj",
													"numinlets" : 2,
													"numoutlets" : 2,
													"outlettype" : [ "", "" ],
													"patching_rect" : [ 2.0, 240.0, 53.0, 22.0 ],
													"text" : "zl.group"
												}

											}
, 											{
												"box" : 												{
													"fontface" : 1,
													"fontsize" : 10.0,
													"id" : "obj-2",
													"maxclass" : "comment",
													"numinlets" : 1,
													"numoutlets" : 0,
													"patching_rect" : [ 2.0, 10.5, 209.0, 18.0 ],
													"text" : "...or drop your own database file(s) here!",
													"textjustification" : 1
												}

											}
, 											{
												"box" : 												{
													"comment" : "",
													"hidden" : 1,
													"id" : "obj-7",
													"index" : 1,
													"maxclass" : "outlet",
													"numinlets" : 1,
													"numoutlets" : 0,
													"patching_rect" : [ 2.0, 286.0, 30.0, 30.0 ]
												}

											}
, 											{
												"box" : 												{
													"hidden" : 1,
													"id" : "obj-6",
													"maxclass" : "newobj",
													"numinlets" : 1,
													"numoutlets" : 2,
													"outlettype" : [ "", "int" ],
													"patching_rect" : [ 2.0, 102.0, 130.0, 22.0 ],
													"text" : "conformpath max boot"
												}

											}
, 											{
												"box" : 												{
													"hidden" : 1,
													"id" : "obj-5",
													"maxclass" : "newobj",
													"numinlets" : 1,
													"numoutlets" : 1,
													"outlettype" : [ "" ],
													"patching_rect" : [ 2.0, 69.0, 79.0, 22.0 ],
													"text" : "absolutepath"
												}

											}
, 											{
												"box" : 												{
													"border" : 1.0,
													"bordercolor" : [ 0.0, 0.0, 0.0, 1.0 ],
													"id" : "obj-4",
													"maxclass" : "dropfile",
													"numinlets" : 1,
													"numoutlets" : 2,
													"outlettype" : [ "", "" ],
													"patching_rect" : [ 2.0, 6.0, 209.0, 58.0 ],
													"rounded" : 0.0,
													"varname" : "live.drop"
												}

											}
 ],
										"lines" : [ 											{
												"patchline" : 												{
													"destination" : [ "obj-11", 0 ],
													"hidden" : 1,
													"order" : 0,
													"source" : [ "obj-10", 0 ]
												}

											}
, 											{
												"patchline" : 												{
													"destination" : [ "obj-3", 0 ],
													"hidden" : 1,
													"order" : 1,
													"source" : [ "obj-10", 0 ]
												}

											}
, 											{
												"patchline" : 												{
													"destination" : [ "obj-13", 0 ],
													"hidden" : 1,
													"source" : [ "obj-11", 0 ]
												}

											}
, 											{
												"patchline" : 												{
													"destination" : [ "obj-11", 0 ],
													"hidden" : 1,
													"source" : [ "obj-12", 1 ]
												}

											}
, 											{
												"patchline" : 												{
													"destination" : [ "obj-14", 0 ],
													"hidden" : 1,
													"midpoints" : [ 113.5, 302.0, 186.5, 302.0, 186.5, 19.5, 11.5, 19.5 ],
													"source" : [ "obj-13", 0 ]
												}

											}
, 											{
												"patchline" : 												{
													"destination" : [ "obj-14", 0 ],
													"hidden" : 1,
													"source" : [ "obj-15", 0 ]
												}

											}
, 											{
												"patchline" : 												{
													"destination" : [ "obj-5", 0 ],
													"hidden" : 1,
													"source" : [ "obj-16", 0 ]
												}

											}
, 											{
												"patchline" : 												{
													"destination" : [ "obj-7", 0 ],
													"hidden" : 1,
													"source" : [ "obj-3", 0 ]
												}

											}
, 											{
												"patchline" : 												{
													"destination" : [ "obj-5", 0 ],
													"hidden" : 1,
													"source" : [ "obj-4", 0 ]
												}

											}
, 											{
												"patchline" : 												{
													"destination" : [ "obj-6", 0 ],
													"hidden" : 1,
													"source" : [ "obj-5", 0 ]
												}

											}
, 											{
												"patchline" : 												{
													"destination" : [ "obj-8", 0 ],
													"hidden" : 1,
													"source" : [ "obj-6", 0 ]
												}

											}
, 											{
												"patchline" : 												{
													"destination" : [ "obj-12", 0 ],
													"hidden" : 1,
													"order" : 0,
													"source" : [ "obj-8", 1 ]
												}

											}
, 											{
												"patchline" : 												{
													"destination" : [ "obj-3", 0 ],
													"hidden" : 1,
													"midpoints" : [ 22.5, 233.0 ],
													"order" : 1,
													"source" : [ "obj-8", 1 ]
												}

											}
, 											{
												"patchline" : 												{
													"destination" : [ "obj-9", 0 ],
													"hidden" : 1,
													"source" : [ "obj-8", 0 ]
												}

											}
, 											{
												"patchline" : 												{
													"destination" : [ "obj-10", 0 ],
													"hidden" : 1,
													"source" : [ "obj-9", 0 ]
												}

											}
 ]
									}
,
									"patching_rect" : [ 501.0, 249.0, 222.5, 67.0 ],
									"viewvisibility" : 1
								}

							}
, 							{
								"box" : 								{
									"color" : [ 0.113725, 0.580392, 0.737255, 1.0 ],
									"id" : "obj-5",
									"maxclass" : "newobj",
									"numinlets" : 2,
									"numoutlets" : 2,
									"outlettype" : [ "", "" ],
									"patching_rect" : [ 18.5, 336.799987999999985, 115.0, 23.0 ],
									"text" : "orchidea.db.query"
								}

							}
, 							{
								"box" : 								{
									"border" : 0,
									"filename" : "helpname.js",
									"id" : "obj-2",
									"ignoreclick" : 1,
									"jsarguments" : [ "orchidea.db.query" ],
									"maxclass" : "jsui",
									"numinlets" : 1,
									"numoutlets" : 1,
									"outlettype" : [ "" ],
									"parameter_enable" : 0,
									"patching_rect" : [ 10.0, 10.0, 383.62396240234375, 57.599853515625 ]
								}

							}
 ],
						"lines" : [ 							{
								"patchline" : 								{
									"destination" : [ "obj-5", 0 ],
									"midpoints" : [ 88.328856999999999, 237.0, 3.0, 237.0, 3.0, 321.0, 28.0, 321.0 ],
									"source" : [ "obj-1", 0 ]
								}

							}
, 							{
								"patchline" : 								{
									"destination" : [ "obj-23", 0 ],
									"source" : [ "obj-10", 0 ]
								}

							}
, 							{
								"patchline" : 								{
									"destination" : [ "obj-5", 0 ],
									"source" : [ "obj-13", 0 ]
								}

							}
, 							{
								"patchline" : 								{
									"destination" : [ "obj-5", 1 ],
									"midpoints" : [ 510.5, 321.0, 124.0, 321.0 ],
									"source" : [ "obj-16", 0 ]
								}

							}
, 							{
								"patchline" : 								{
									"destination" : [ "obj-16", 0 ],
									"source" : [ "obj-45", 0 ]
								}

							}
, 							{
								"patchline" : 								{
									"destination" : [ "obj-45", 0 ],
									"source" : [ "obj-47", 0 ]
								}

							}
, 							{
								"patchline" : 								{
									"destination" : [ "obj-10", 0 ],
									"source" : [ "obj-5", 0 ]
								}

							}
 ]
					}
,
					"patching_rect" : [ 54.0, 137.0, 92.0, 22.0 ],
					"saved_object_attributes" : 					{
						"description" : "",
						"digest" : "",
						"fontsize" : 13.0,
						"globalpatchername" : "",
						"tags" : ""
					}
,
					"text" : "p \"get features\"",
					"varname" : "basic_tab[1]"
				}

			}
, 			{
				"box" : 				{
					"fontname" : "Arial",
					"fontsize" : 12.0,
					"id" : "obj-1",
					"maxclass" : "newobj",
					"numinlets" : 1,
					"numoutlets" : 1,
					"outlettype" : [ "" ],
					"patching_rect" : [ 299.0, 205.0, 190.0, 22.0 ],
					"saved_object_attributes" : 					{
						"filename" : "helpstarter.js",
						"parameter_enable" : 0
					}
,
					"text" : "js helpstarter.js orchidea.db.query"
				}

			}
, 			{
				"box" : 				{
					"fontname" : "Arial",
					"fontsize" : 12.0,
					"id" : "obj-2",
					"maxclass" : "newobj",
					"numinlets" : 0,
					"numoutlets" : 0,
					"patcher" : 					{
						"fileversion" : 1,
						"appversion" : 						{
							"major" : 8,
							"minor" : 0,
							"revision" : 1,
							"architecture" : "x64",
							"modernui" : 1
						}
,
						"classnamespace" : "box",
						"rect" : [ 297.0, 105.0, 809.0, 629.0 ],
						"bglocked" : 0,
						"openinpresentation" : 0,
						"default_fontsize" : 13.0,
						"default_fontface" : 0,
						"default_fontname" : "Arial",
						"gridonopen" : 1,
						"gridsize" : [ 5.0, 5.0 ],
						"gridsnaponopen" : 1,
						"objectsnaponopen" : 1,
						"statusbarvisible" : 2,
						"toolbarvisible" : 1,
						"lefttoolbarpinned" : 0,
						"toptoolbarpinned" : 0,
						"righttoolbarpinned" : 0,
						"bottomtoolbarpinned" : 0,
						"toolbars_unpinned_last_save" : 0,
						"tallnewobj" : 0,
						"boxanimatetime" : 200,
						"enablehscroll" : 1,
						"enablevscroll" : 1,
						"devicewidth" : 0.0,
						"description" : "",
						"digest" : "",
						"tags" : "",
						"style" : "",
						"subpatcher_template" : "",
						"showontab" : 1,
						"boxes" : [ 							{
								"box" : 								{
									"fontname" : "Arial",
									"fontsize" : 13.0,
									"id" : "obj-10",
									"maxclass" : "comment",
									"numinlets" : 1,
									"numoutlets" : 0,
									"patching_rect" : [ 18.5, 523.875, 162.0, 21.0 ],
									"text" : "IMPORTANT:",
									"textcolor" : [ 0.792156994342804, 0.0, 0.0, 1.0 ]
								}

							}
, 							{
								"box" : 								{
									"fontname" : "Arial",
									"fontsize" : 13.0,
									"id" : "obj-23",
									"linecount" : 2,
									"maxclass" : "comment",
									"numinlets" : 1,
									"numoutlets" : 0,
									"patching_rect" : [ 18.5, 540.875, 273.0, 36.0 ],
									"text" : "The expected naming convention is: instrument-style-note-dynamics-others.wav"
								}

							}
, 							{
								"box" : 								{
									"fontname" : "Arial",
									"fontsize" : 13.0,
									"id" : "obj-22",
									"linecount" : 4,
									"maxclass" : "comment",
									"numinlets" : 1,
									"numoutlets" : 0,
									"patching_rect" : [ 18.5, 147.0, 212.666626000000008, 65.0 ],
									"text" : "By using 'getitmes' it is possible to retrive from the database all the instruments, pitches, styles, dynamics and other symbols",
									"textcolor" : [ 0.50196099281311, 0.50196099281311, 0.50196099281311, 1.0 ]
								}

							}
, 							{
								"box" : 								{
									"bubble" : 1,
									"bubbleside" : 3,
									"fontname" : "Arial",
									"fontsize" : 13.0,
									"id" : "obj-21",
									"linecount" : 2,
									"maxclass" : "comment",
									"numinlets" : 1,
									"numoutlets" : 0,
									"patching_rect" : [ 433.5, 580.25, 104.0, 40.0 ],
									"text" : "Get all strings"
								}

							}
, 							{
								"box" : 								{
									"bubble" : 1,
									"bubbleside" : 3,
									"fontname" : "Arial",
									"fontsize" : 13.0,
									"id" : "obj-19",
									"linecount" : 2,
									"maxclass" : "comment",
									"numinlets" : 1,
									"numoutlets" : 0,
									"patching_rect" : [ 411.5, 536.25, 131.0, 40.0 ],
									"text" : "Get all oboes playing an A in pp"
								}

							}
, 							{
								"box" : 								{
									"bubble" : 1,
									"bubbleside" : 3,
									"fontname" : "Arial",
									"fontsize" : 13.0,
									"id" : "obj-18",
									"linecount" : 2,
									"maxclass" : "comment",
									"numinlets" : 1,
									"numoutlets" : 0,
									"patching_rect" : [ 433.5, 448.5, 104.0, 40.0 ],
									"text" : "Get all horns playing a C"
								}

							}
, 							{
								"box" : 								{
									"bubble" : 1,
									"bubbleside" : 3,
									"fontname" : "Arial",
									"fontsize" : 13.0,
									"id" : "obj-15",
									"linecount" : 2,
									"maxclass" : "comment",
									"numinlets" : 1,
									"numoutlets" : 0,
									"patching_rect" : [ 350.333373999999992, 492.25, 189.5, 40.0 ],
									"text" : "Get all flutes playing mf in the fourth octave"
								}

							}
, 							{
								"box" : 								{
									"fontname" : "Arial",
									"fontsize" : 13.0,
									"id" : "obj-13",
									"linecount" : 10,
									"maxclass" : "comment",
									"numinlets" : 1,
									"numoutlets" : 0,
									"patching_rect" : [ 397.666655999999989, 288.799987999999985, 285.0, 152.0 ],
									"text" : "The database can be queried also by a simple \nregular expression engine by using 'grep';\n the supported patterns are [c|.|^|$|*], where:\n\n\tc matches any literal character c\n\t. matches any single haracter\n\t^ matches the beginning of the input string\n\t$ matches the end of the input string\n\t\t* matches zero or more occurences of\n    the previous character",
									"textcolor" : [ 0.50196099281311, 0.50196099281311, 0.50196099281311, 1.0 ]
								}

							}
, 							{
								"box" : 								{
									"id" : "obj-32",
									"maxclass" : "newobj",
									"numinlets" : 1,
									"numoutlets" : 0,
									"patching_rect" : [ 18.5, 460.25, 118.0, 23.0 ],
									"text" : "print QueryAnswer"
								}

							}
, 							{
								"box" : 								{
									"id" : "obj-12",
									"maxclass" : "message",
									"numinlets" : 2,
									"numoutlets" : 1,
									"outlettype" : [ "" ],
									"patching_rect" : [ 553.833374000000049, 457.0, 91.0, 23.0 ],
									"text" : "grep .*Hn.*C.-"
								}

							}
, 							{
								"box" : 								{
									"id" : "obj-9",
									"maxclass" : "message",
									"numinlets" : 2,
									"numoutlets" : 1,
									"outlettype" : [ "" ],
									"patching_rect" : [ 27.499963999999999, 268.666655999999989, 195.0, 23.0 ],
									"text" : "getitems styles dynamics others"
								}

							}
, 							{
								"box" : 								{
									"id" : "obj-8",
									"maxclass" : "message",
									"numinlets" : 2,
									"numoutlets" : 1,
									"outlettype" : [ "" ],
									"patching_rect" : [ 553.833374000000049, 588.75, 90.0, 23.0 ],
									"text" : "grep ^/Strings"
								}

							}
, 							{
								"box" : 								{
									"id" : "obj-3",
									"maxclass" : "message",
									"numinlets" : 2,
									"numoutlets" : 1,
									"outlettype" : [ "" ],
									"patching_rect" : [ 553.833374000000049, 544.75, 107.0, 23.0 ],
									"text" : "grep .*Ob.*A.*pp"
								}

							}
, 							{
								"box" : 								{
									"id" : "obj-6",
									"maxclass" : "message",
									"numinlets" : 2,
									"numoutlets" : 1,
									"outlettype" : [ "" ],
									"patching_rect" : [ 28.666651000000002, 234.166686999999996, 175.0, 23.0 ],
									"text" : "getitems instruments pitches"
								}

							}
, 							{
								"box" : 								{
									"id" : "obj-4",
									"maxclass" : "message",
									"numinlets" : 2,
									"numoutlets" : 1,
									"outlettype" : [ "" ],
									"patching_rect" : [ 553.833374000000049, 500.75, 99.0, 23.0 ],
									"text" : "grep .*Fl.*4.*mf"
								}

							}
, 							{
								"box" : 								{
									"id" : "obj-1",
									"maxclass" : "newobj",
									"numinlets" : 1,
									"numoutlets" : 0,
									"patching_rect" : [ 239.5, 460.25, 110.0, 23.0 ],
									"text" : "print Notifications"
								}

							}
, 							{
								"box" : 								{
									"fontname" : "Arial",
									"fontsize" : 13.0,
									"id" : "obj-54",
									"linecount" : 5,
									"maxclass" : "comment",
									"numinlets" : 1,
									"numoutlets" : 0,
									"patching_rect" : [ 477.800018000000023, 125.0, 156.0, 79.0 ],
									"text" : "orchidea comes with a bundled database called \"TinySOL\", but you can build your own datasets: see orchidea.db.gen",
									"textcolor" : [ 0.50196099281311, 0.50196099281311, 0.50196099281311, 1.0 ]
								}

							}
, 							{
								"box" : 								{
									"bubble" : 1,
									"fontname" : "Arial",
									"fontsize" : 13.0,
									"id" : "obj-50",
									"maxclass" : "comment",
									"numinlets" : 1,
									"numoutlets" : 0,
									"patching_rect" : [ 356.0, 139.0, 104.0, 25.0 ],
									"text" : "Set database"
								}

							}
, 							{
								"box" : 								{
									"id" : "obj-47",
									"maxclass" : "button",
									"numinlets" : 1,
									"numoutlets" : 1,
									"outlettype" : [ "bang" ],
									"parameter_enable" : 0,
									"patching_rect" : [ 313.5, 139.0, 24.0, 24.0 ]
								}

							}
, 							{
								"box" : 								{
									"id" : "obj-45",
									"maxclass" : "newobj",
									"numinlets" : 1,
									"numoutlets" : 1,
									"outlettype" : [ "" ],
									"patching_rect" : [ 313.5, 174.0, 126.0, 23.0 ],
									"text" : "orchidea.db.tinySOL"
								}

							}
, 							{
								"box" : 								{
									"bgmode" : 0,
									"border" : 0,
									"clickthrough" : 0,
									"embed" : 1,
									"enablehscroll" : 0,
									"enablevscroll" : 0,
									"id" : "obj-16",
									"lockeddragscroll" : 0,
									"maxclass" : "bpatcher",
									"numinlets" : 1,
									"numoutlets" : 1,
									"offset" : [ 0.0, 0.0 ],
									"outlettype" : [ "" ],
									"patcher" : 									{
										"fileversion" : 1,
										"appversion" : 										{
											"major" : 8,
											"minor" : 0,
											"revision" : 1,
											"architecture" : "x64",
											"modernui" : 1
										}
,
										"classnamespace" : "box",
										"rect" : [ -217.0, -23.0, 333.0, 99.0 ],
										"bglocked" : 0,
										"openinpresentation" : 0,
										"default_fontsize" : 12.0,
										"default_fontface" : 0,
										"default_fontname" : "Arial",
										"gridonopen" : 1,
										"gridsize" : [ 15.0, 15.0 ],
										"gridsnaponopen" : 1,
										"objectsnaponopen" : 1,
										"statusbarvisible" : 2,
										"toolbarvisible" : 1,
										"lefttoolbarpinned" : 0,
										"toptoolbarpinned" : 0,
										"righttoolbarpinned" : 0,
										"bottomtoolbarpinned" : 0,
										"toolbars_unpinned_last_save" : 0,
										"tallnewobj" : 0,
										"boxanimatetime" : 200,
										"enablehscroll" : 1,
										"enablevscroll" : 1,
										"devicewidth" : 0.0,
										"description" : "",
										"digest" : "",
										"tags" : "",
										"style" : "",
										"subpatcher_template" : "",
										"boxes" : [ 											{
												"box" : 												{
													"comment" : "",
													"hidden" : 1,
													"id" : "obj-16",
													"index" : 1,
													"maxclass" : "inlet",
													"numinlets" : 0,
													"numoutlets" : 1,
													"outlettype" : [ "" ],
													"patching_rect" : [ 226.0, 26.5, 30.0, 30.0 ]
												}

											}
, 											{
												"box" : 												{
													"hidden" : 1,
													"id" : "obj-15",
													"linecount" : 3,
													"maxclass" : "newobj",
													"numinlets" : 1,
													"numoutlets" : 1,
													"outlettype" : [ "" ],
													"patching_rect" : [ 159.0, 50.0, 43.0, 49.0 ],
													"text" : "loadmess set"
												}

											}
, 											{
												"box" : 												{
													"fontface" : 2,
													"fontsize" : 10.0,
													"id" : "obj-14",
													"maxclass" : "comment",
													"numinlets" : 1,
													"numoutlets" : 0,
													"patching_rect" : [ 2.0, 26.5, 209.0, 18.0 ],
													"textjustification" : 1
												}

											}
, 											{
												"box" : 												{
													"hidden" : 1,
													"id" : "obj-13",
													"maxclass" : "newobj",
													"numinlets" : 1,
													"numoutlets" : 1,
													"outlettype" : [ "" ],
													"patching_rect" : [ 104.0, 270.0, 74.0, 22.0 ],
													"text" : "prepend set"
												}

											}
, 											{
												"box" : 												{
													"hidden" : 1,
													"id" : "obj-12",
													"maxclass" : "newobj",
													"numinlets" : 1,
													"numoutlets" : 5,
													"outlettype" : [ "", "", "", "", "" ],
													"patching_rect" : [ 88.0, 173.0, 83.0, 22.0 ],
													"text" : "regexp .+/(.+)"
												}

											}
, 											{
												"box" : 												{
													"hidden" : 1,
													"id" : "obj-11",
													"maxclass" : "newobj",
													"numinlets" : 2,
													"numoutlets" : 2,
													"outlettype" : [ "", "" ],
													"patching_rect" : [ 104.0, 240.0, 53.0, 22.0 ],
													"text" : "zl.group"
												}

											}
, 											{
												"box" : 												{
													"hidden" : 1,
													"id" : "obj-10",
													"maxclass" : "newobj",
													"numinlets" : 1,
													"numoutlets" : 1,
													"outlettype" : [ "" ],
													"patching_rect" : [ 2.0, 198.0, 56.0, 22.0 ],
													"text" : "deferlow"
												}

											}
, 											{
												"box" : 												{
													"hidden" : 1,
													"id" : "obj-9",
													"maxclass" : "newobj",
													"numinlets" : 2,
													"numoutlets" : 1,
													"outlettype" : [ "bang" ],
													"patching_rect" : [ 2.0, 168.0, 63.0, 22.0 ],
													"text" : "delay 100"
												}

											}
, 											{
												"box" : 												{
													"hidden" : 1,
													"id" : "obj-8",
													"maxclass" : "newobj",
													"numinlets" : 1,
													"numoutlets" : 2,
													"outlettype" : [ "bang", "" ],
													"patching_rect" : [ 2.0, 132.0, 30.0, 22.0 ],
													"text" : "t b l"
												}

											}
, 											{
												"box" : 												{
													"hidden" : 1,
													"id" : "obj-3",
													"maxclass" : "newobj",
													"numinlets" : 2,
													"numoutlets" : 2,
													"outlettype" : [ "", "" ],
													"patching_rect" : [ 2.0, 240.0, 53.0, 22.0 ],
													"text" : "zl.group"
												}

											}
, 											{
												"box" : 												{
													"fontface" : 1,
													"fontsize" : 10.0,
													"id" : "obj-2",
													"maxclass" : "comment",
													"numinlets" : 1,
													"numoutlets" : 0,
													"patching_rect" : [ 2.0, 10.5, 209.0, 18.0 ],
													"text" : "...or drop your own database file(s) here!",
													"textjustification" : 1
												}

											}
, 											{
												"box" : 												{
													"comment" : "",
													"hidden" : 1,
													"id" : "obj-7",
													"index" : 1,
													"maxclass" : "outlet",
													"numinlets" : 1,
													"numoutlets" : 0,
													"patching_rect" : [ 2.0, 286.0, 30.0, 30.0 ]
												}

											}
, 											{
												"box" : 												{
													"hidden" : 1,
													"id" : "obj-6",
													"maxclass" : "newobj",
													"numinlets" : 1,
													"numoutlets" : 2,
													"outlettype" : [ "", "int" ],
													"patching_rect" : [ 2.0, 102.0, 130.0, 22.0 ],
													"text" : "conformpath max boot"
												}

											}
, 											{
												"box" : 												{
													"hidden" : 1,
													"id" : "obj-5",
													"maxclass" : "newobj",
													"numinlets" : 1,
													"numoutlets" : 1,
													"outlettype" : [ "" ],
													"patching_rect" : [ 2.0, 69.0, 79.0, 22.0 ],
													"text" : "absolutepath"
												}

											}
, 											{
												"box" : 												{
													"border" : 1.0,
													"bordercolor" : [ 0.0, 0.0, 0.0, 1.0 ],
													"id" : "obj-4",
													"maxclass" : "dropfile",
													"numinlets" : 1,
													"numoutlets" : 2,
													"outlettype" : [ "", "" ],
													"patching_rect" : [ 2.0, 6.0, 209.0, 58.0 ],
													"rounded" : 0.0,
													"varname" : "live.drop"
												}

											}
 ],
										"lines" : [ 											{
												"patchline" : 												{
													"destination" : [ "obj-11", 0 ],
													"hidden" : 1,
													"order" : 0,
													"source" : [ "obj-10", 0 ]
												}

											}
, 											{
												"patchline" : 												{
													"destination" : [ "obj-3", 0 ],
													"hidden" : 1,
													"order" : 1,
													"source" : [ "obj-10", 0 ]
												}

											}
, 											{
												"patchline" : 												{
													"destination" : [ "obj-13", 0 ],
													"hidden" : 1,
													"source" : [ "obj-11", 0 ]
												}

											}
, 											{
												"patchline" : 												{
													"destination" : [ "obj-11", 0 ],
													"hidden" : 1,
													"source" : [ "obj-12", 1 ]
												}

											}
, 											{
												"patchline" : 												{
													"destination" : [ "obj-14", 0 ],
													"hidden" : 1,
													"midpoints" : [ 113.5, 302.0, 186.5, 302.0, 186.5, 19.5, 11.5, 19.5 ],
													"source" : [ "obj-13", 0 ]
												}

											}
, 											{
												"patchline" : 												{
													"destination" : [ "obj-14", 0 ],
													"hidden" : 1,
													"source" : [ "obj-15", 0 ]
												}

											}
, 											{
												"patchline" : 												{
													"destination" : [ "obj-5", 0 ],
													"hidden" : 1,
													"source" : [ "obj-16", 0 ]
												}

											}
, 											{
												"patchline" : 												{
													"destination" : [ "obj-7", 0 ],
													"hidden" : 1,
													"source" : [ "obj-3", 0 ]
												}

											}
, 											{
												"patchline" : 												{
													"destination" : [ "obj-5", 0 ],
													"hidden" : 1,
													"source" : [ "obj-4", 0 ]
												}

											}
, 											{
												"patchline" : 												{
													"destination" : [ "obj-6", 0 ],
													"hidden" : 1,
													"source" : [ "obj-5", 0 ]
												}

											}
, 											{
												"patchline" : 												{
													"destination" : [ "obj-8", 0 ],
													"hidden" : 1,
													"source" : [ "obj-6", 0 ]
												}

											}
, 											{
												"patchline" : 												{
													"destination" : [ "obj-12", 0 ],
													"hidden" : 1,
													"order" : 0,
													"source" : [ "obj-8", 1 ]
												}

											}
, 											{
												"patchline" : 												{
													"destination" : [ "obj-3", 0 ],
													"hidden" : 1,
													"midpoints" : [ 22.5, 233.0 ],
													"order" : 1,
													"source" : [ "obj-8", 1 ]
												}

											}
, 											{
												"patchline" : 												{
													"destination" : [ "obj-9", 0 ],
													"hidden" : 1,
													"source" : [ "obj-8", 0 ]
												}

											}
, 											{
												"patchline" : 												{
													"destination" : [ "obj-10", 0 ],
													"hidden" : 1,
													"source" : [ "obj-9", 0 ]
												}

											}
 ]
									}
,
									"patching_rect" : [ 313.5, 206.0, 222.5, 67.0 ],
									"viewvisibility" : 1
								}

							}
, 							{
								"box" : 								{
									"color" : [ 0.113725, 0.580392, 0.737255, 1.0 ],
									"id" : "obj-5",
									"maxclass" : "newobj",
									"numinlets" : 2,
									"numoutlets" : 2,
									"outlettype" : [ "", "" ],
									"patching_rect" : [ 18.5, 417.799987999999985, 240.0, 23.0 ],
									"text" : "orchidea.db.query"
								}

							}
, 							{
								"box" : 								{
									"border" : 0,
									"filename" : "helpdetails.js",
									"id" : "obj-2",
									"ignoreclick" : 1,
									"jsarguments" : [ "orchidea.db.query", 120 ],
									"maxclass" : "jsui",
									"numinlets" : 1,
									"numoutlets" : 1,
									"outlettype" : [ "" ],
									"parameter_enable" : 0,
									"patching_rect" : [ 10.0, 10.0, 660.0, 114.0 ]
								}

							}
, 							{
								"box" : 								{
									"angle" : 270.0,
									"border" : 2,
									"bordercolor" : [ 0.32549, 0.345098, 0.372549, 1.0 ],
									"grad1" : [ 0.0, 0.0, 0.0, 0.0 ],
									"grad2" : [ 0.0, 0.0, 0.0, 0.0 ],
									"id" : "obj-7",
									"maxclass" : "panel",
									"mode" : 1,
									"numinlets" : 1,
									"numoutlets" : 0,
									"patching_rect" : [ 539.333374000000049, 448.5, 130.666626000000008, 171.75 ],
									"proportion" : 0.39,
									"rounded" : 10
								}

							}
, 							{
								"box" : 								{
									"angle" : 270.0,
									"border" : 2,
									"bordercolor" : [ 0.32549, 0.345098, 0.372549, 1.0 ],
									"grad1" : [ 0.0, 0.0, 0.0, 0.0 ],
									"grad2" : [ 0.0, 0.0, 0.0, 0.0 ],
									"id" : "obj-14",
									"maxclass" : "panel",
									"mode" : 1,
									"numinlets" : 1,
									"numoutlets" : 0,
									"patching_rect" : [ 18.5, 221.799988000000013, 212.666626000000008, 89.5 ],
									"proportion" : 0.39,
									"rounded" : 10
								}

							}
, 							{
								"box" : 								{
									"background" : 1,
									"bgcolor" : [ 1.0, 0.788235, 0.470588, 1.0 ],
									"fontface" : 1,
									"hint" : "",
									"id" : "obj-20",
									"ignoreclick" : 1,
									"legacytextcolor" : 1,
									"maxclass" : "textbutton",
									"numinlets" : 1,
									"numoutlets" : 3,
									"outlettype" : [ "", "", "int" ],
									"parameter_enable" : 0,
									"patching_rect" : [ 452.0, 167.5, 20.0, 20.0 ],
									"rounded" : 60.0,
									"text" : "1",
									"textcolor" : [ 0.34902, 0.34902, 0.34902, 1.0 ]
								}

							}
 ],
						"lines" : [ 							{
								"patchline" : 								{
									"destination" : [ "obj-5", 0 ],
									"midpoints" : [ 563.333374000000049, 483.0, 513.0, 483.0, 513.0, 489.0, 393.0, 489.0, 393.0, 447.0, 270.0, 447.0, 270.0, 402.0, 28.0, 402.0 ],
									"source" : [ "obj-12", 0 ]
								}

							}
, 							{
								"patchline" : 								{
									"destination" : [ "obj-5", 1 ],
									"midpoints" : [ 323.0, 402.0, 249.0, 402.0 ],
									"source" : [ "obj-16", 0 ]
								}

							}
, 							{
								"patchline" : 								{
									"destination" : [ "obj-5", 0 ],
									"midpoints" : [ 563.333374000000049, 570.0, 516.0, 570.0, 516.0, 576.0, 3.0, 576.0, 3.0, 411.0, 28.0, 411.0 ],
									"source" : [ "obj-3", 0 ]
								}

							}
, 							{
								"patchline" : 								{
									"destination" : [ "obj-5", 0 ],
									"midpoints" : [ 563.333374000000049, 525.0, 513.0, 525.0, 513.0, 489.0, 393.0, 489.0, 393.0, 447.0, 270.0, 447.0, 270.0, 402.0, 28.0, 402.0 ],
									"source" : [ "obj-4", 0 ]
								}

							}
, 							{
								"patchline" : 								{
									"destination" : [ "obj-16", 0 ],
									"source" : [ "obj-45", 0 ]
								}

							}
, 							{
								"patchline" : 								{
									"destination" : [ "obj-45", 0 ],
									"source" : [ "obj-47", 0 ]
								}

							}
, 							{
								"patchline" : 								{
									"destination" : [ "obj-1", 0 ],
									"source" : [ "obj-5", 1 ]
								}

							}
, 							{
								"patchline" : 								{
									"destination" : [ "obj-32", 0 ],
									"source" : [ "obj-5", 0 ]
								}

							}
, 							{
								"patchline" : 								{
									"destination" : [ "obj-5", 0 ],
									"midpoints" : [ 38.166651000000002, 327.0, 12.0, 327.0, 12.0, 402.0, 28.0, 402.0 ],
									"source" : [ "obj-6", 0 ]
								}

							}
, 							{
								"patchline" : 								{
									"destination" : [ "obj-5", 0 ],
									"midpoints" : [ 563.333374000000049, 630.0, 3.0, 630.0, 3.0, 411.0, 28.0, 411.0 ],
									"source" : [ "obj-8", 0 ]
								}

							}
, 							{
								"patchline" : 								{
									"destination" : [ "obj-5", 0 ],
									"midpoints" : [ 36.999963999999999, 402.0, 28.0, 402.0 ],
									"source" : [ "obj-9", 0 ]
								}

							}
 ]
					}
,
					"patching_rect" : [ 19.0, 96.0, 50.0, 22.0 ],
					"saved_object_attributes" : 					{
						"description" : "",
						"digest" : "",
						"fontsize" : 13.0,
						"globalpatchername" : "",
						"tags" : ""
					}
,
					"text" : "p basic",
					"varname" : "basic_tab"
				}

			}
, 			{
				"box" : 				{
					"border" : 0,
					"filename" : "helpname.js",
					"id" : "obj-4",
					"ignoreclick" : 1,
					"jsarguments" : [ "orchidea.db.query" ],
					"maxclass" : "jsui",
					"numinlets" : 1,
					"numoutlets" : 1,
					"outlettype" : [ "" ],
					"parameter_enable" : 0,
					"patching_rect" : [ 10.0, 10.0, 383.657714999999996, 57.567627000000002 ]
				}

			}
, 			{
				"box" : 				{
					"fontname" : "Arial",
					"fontsize" : 12.0,
					"id" : "obj-8",
					"maxclass" : "newobj",
					"numinlets" : 0,
					"numoutlets" : 0,
					"patcher" : 					{
						"fileversion" : 1,
						"appversion" : 						{
							"major" : 8,
							"minor" : 0,
							"revision" : 1,
							"architecture" : "x64",
							"modernui" : 1
						}
,
						"classnamespace" : "box",
						"rect" : [ 0.0, 26.0, 809.0, 629.0 ],
						"bglocked" : 0,
						"openinpresentation" : 0,
						"default_fontsize" : 13.0,
						"default_fontface" : 0,
						"default_fontname" : "Arial",
						"gridonopen" : 1,
						"gridsize" : [ 5.0, 5.0 ],
						"gridsnaponopen" : 1,
						"objectsnaponopen" : 1,
						"statusbarvisible" : 2,
						"toolbarvisible" : 1,
						"lefttoolbarpinned" : 0,
						"toptoolbarpinned" : 0,
						"righttoolbarpinned" : 0,
						"bottomtoolbarpinned" : 0,
						"toolbars_unpinned_last_save" : 0,
						"tallnewobj" : 0,
						"boxanimatetime" : 200,
						"enablehscroll" : 1,
						"enablevscroll" : 1,
						"devicewidth" : 0.0,
						"description" : "",
						"digest" : "",
						"tags" : "",
						"style" : "",
						"subpatcher_template" : "",
						"showontab" : 1,
						"boxes" : [  ],
						"lines" : [  ]
					}
,
					"patching_rect" : [ 205.0, 205.0, 50.0, 22.0 ],
					"saved_object_attributes" : 					{
						"description" : "",
						"digest" : "",
						"fontsize" : 13.0,
						"globalpatchername" : "",
						"tags" : ""
					}
,
					"text" : "p ?",
					"varname" : "q_tab"
				}

			}
 ],
		"lines" : [  ],
		"dependency_cache" : [ 			{
				"name" : "helpname.js",
				"bootpath" : "C74:/help/resources",
				"type" : "TEXT",
				"implicit" : 1
			}
, 			{
				"name" : "helpdetails.js",
				"bootpath" : "C74:/help/resources",
				"type" : "TEXT",
				"implicit" : 1
			}
, 			{
				"name" : "orchidea.db.tinySOL.maxpat",
				"bootpath" : "~/MusicaMia/_RICERCA/orchidea/max/patchers",
				"patcherrelativepath" : "../patchers",
				"type" : "JSON",
				"implicit" : 1
			}
, 			{
				"name" : "helpstarter.js",
				"bootpath" : "C74:/help/resources",
				"type" : "TEXT",
				"implicit" : 1
			}
, 			{
				"name" : "orchidea.db.query.mxo",
				"type" : "iLaX"
			}
 ],
		"autosave" : 0
	}

}
